<svg width="692" height="132" viewBox="0 0 692 132" fill="none" xmlns="http://www.w3.org/2000/svg">
<path d="M114.29 35.65H155.94V46.53H127.21V61.15H154.41V71.86H127.21V96H114.29V35.65ZM164.909 50.44H177.659V96H164.909V50.44ZM164.654 34.63H177.829V44.83H164.654V34.63ZM187.736 50.44H199.211L199.466 57.92C201.846 52.2533 206.351 49.42 212.981 49.42C217.854 49.42 221.651 50.9783 224.371 54.095C227.091 57.155 228.451 61.3483 228.451 66.675V96H215.701V70.925C215.701 67.0717 215.163 64.21 214.086 62.34C213.066 60.47 211.281 59.535 208.731 59.535C206.068 59.535 204.028 60.5267 202.611 62.51C201.194 64.4933 200.486 67.2983 200.486 70.925V96H187.736V50.44ZM259.275 97.02C254.685 97.02 250.661 96.0567 247.205 94.13C243.748 92.1467 241.056 89.37 239.13 85.8C237.26 82.1733 236.325 77.98 236.325 73.22C236.325 68.46 237.26 64.295 239.13 60.725C241 57.0983 243.663 54.3217 247.12 52.395C250.576 50.4117 254.6 49.42 259.19 49.42C263.666 49.42 267.576 50.4117 270.92 52.395C274.32 54.3783 276.926 57.24 278.74 60.98C280.553 64.6633 281.46 69.0267 281.46 74.07V76.62H249.5C249.613 80.1333 250.548 82.7967 252.305 84.61C254.061 86.4233 256.47 87.33 259.53 87.33C263.95 87.33 266.783 85.4883 268.03 81.805L280.865 82.57C279.618 87.1033 277.068 90.645 273.215 93.195C269.418 95.745 264.771 97.02 259.275 97.02ZM268.455 68.8C268.285 65.57 267.378 63.105 265.735 61.405C264.091 59.705 261.91 58.855 259.19 58.855C256.526 58.855 254.316 59.7333 252.56 61.49C250.86 63.2467 249.84 65.6833 249.5 68.8H268.455ZM310.437 35.65H323.357V96H310.437V35.65ZM334.162 50.44H345.637L345.892 57.92C348.272 52.2533 352.777 49.42 359.407 49.42C364.28 49.42 368.077 50.9783 370.797 54.095C373.517 57.155 374.877 61.3483 374.877 66.675V96H362.127V70.925C362.127 67.0717 361.588 64.21 360.512 62.34C359.492 60.47 357.707 59.535 355.157 59.535C352.493 59.535 350.453 60.5267 349.037 62.51C347.62 64.4933 346.912 67.2983 346.912 70.925V96H334.162V50.44ZM402.421 96C397.718 96 394.261 94.9233 392.051 92.77C389.841 90.56 388.736 87.075 388.736 82.315V59.96H381.426V50.44H388.736V39.73H401.486V50.44H413.471V59.96H401.486V80.785C401.486 82.9383 401.94 84.44 402.846 85.29C403.753 86.0833 405.17 86.48 407.096 86.48H413.471V96H402.421ZM441.311 97.02C436.721 97.02 432.698 96.0567 429.241 94.13C425.784 92.1467 423.093 89.37 421.166 85.8C419.296 82.1733 418.361 77.98 418.361 73.22C418.361 68.46 419.296 64.295 421.166 60.725C423.036 57.0983 425.699 54.3217 429.156 52.395C432.613 50.4117 436.636 49.42 441.226 49.42C445.703 49.42 449.613 50.4117 452.956 52.395C456.356 54.3783 458.963 57.24 460.776 60.98C462.589 64.6633 463.496 69.0267 463.496 74.07V76.62H431.536C431.649 80.1333 432.584 82.7967 434.341 84.61C436.098 86.4233 438.506 87.33 441.566 87.33C445.986 87.33 448.819 85.4883 450.066 81.805L462.901 82.57C461.654 87.1033 459.104 90.645 455.251 93.195C451.454 95.745 446.808 97.02 441.311 97.02ZM450.491 68.8C450.321 65.57 449.414 63.105 447.771 61.405C446.128 59.705 443.946 58.855 441.226 58.855C438.563 58.855 436.353 59.7333 434.596 61.49C432.896 63.2467 431.876 65.6833 431.536 68.8H450.491ZM471.706 50.44H483.776L484.031 59.62C484.937 56.39 486.269 54.0667 488.026 52.65C489.782 51.1767 492.077 50.44 494.911 50.44H499.076V60.98H494.911C491.284 60.98 488.621 61.7167 486.921 63.19C485.277 64.6633 484.456 67.0717 484.456 70.415V96H471.706V50.44ZM511.997 49.845C511.997 45.255 513.244 41.7417 515.737 39.305C518.23 36.8683 521.999 35.65 527.042 35.65H536.732V45.17H529.762C528.005 45.17 526.73 45.6233 525.937 46.53C525.144 47.38 524.747 48.6833 524.747 50.44V52.14H536.052V61.66H524.747V96H511.997V61.66H505.367V52.14H511.997V49.845ZM557.192 97.02C552.376 97.02 548.494 95.915 545.547 93.705C542.657 91.495 541.212 88.4633 541.212 84.61C541.212 80.7 542.431 77.64 544.867 75.43C547.304 73.1633 551.072 71.52 556.172 70.5L570.877 67.61C570.877 61.66 568.271 58.685 563.057 58.685C558.354 58.685 555.577 60.8667 554.727 65.23L541.977 64.635C542.827 59.6483 545.066 55.88 548.692 53.33C552.319 50.7233 557.107 49.42 563.057 49.42C569.857 49.42 574.986 51.035 578.442 54.265C581.899 57.495 583.627 62.2267 583.627 68.46V84.015C583.627 85.2617 583.826 86.1117 584.222 86.565C584.619 87.0183 585.271 87.245 586.177 87.245H587.452V96C586.319 96.34 584.789 96.51 582.862 96.51C577.196 96.51 573.881 94.045 572.917 89.115C571.727 91.5517 569.744 93.4783 566.967 94.895C564.247 96.3117 560.989 97.02 557.192 97.02ZM560.252 88.265C563.482 88.265 566.061 87.33 567.987 85.46C569.914 83.59 570.877 81.04 570.877 77.81V75.6L560.507 77.81C556.371 78.66 554.302 80.53 554.302 83.42C554.302 84.95 554.812 86.14 555.832 86.99C556.852 87.84 558.326 88.265 560.252 88.265ZM615.631 97.02C610.985 97.02 606.905 96.0567 603.391 94.13C599.935 92.1467 597.243 89.37 595.316 85.8C593.446 82.1733 592.511 77.98 592.511 73.22C592.511 68.46 593.446 64.295 595.316 60.725C597.243 57.0983 599.935 54.3217 603.391 52.395C606.905 50.4117 610.985 49.42 615.631 49.42C621.751 49.42 626.823 51.0067 630.846 54.18C634.87 57.3533 637.221 61.7167 637.901 67.27L624.726 67.865C624.33 65.0883 623.31 62.9633 621.666 61.49C620.08 60.0167 618.068 59.28 615.631 59.28C612.458 59.28 609.993 60.4983 608.236 62.935C606.48 65.3717 605.601 68.8 605.601 73.22C605.601 77.64 606.48 81.0967 608.236 83.59C609.993 86.0267 612.458 87.245 615.631 87.245C618.181 87.245 620.25 86.48 621.836 84.95C623.423 83.42 624.386 81.1533 624.726 78.15L637.901 78.66C637.278 84.27 634.955 88.7467 630.931 92.09C626.908 95.3767 621.808 97.02 615.631 97.02ZM665.847 97.02C661.257 97.02 657.234 96.0567 653.777 94.13C650.32 92.1467 647.629 89.37 645.702 85.8C643.832 82.1733 642.897 77.98 642.897 73.22C642.897 68.46 643.832 64.295 645.702 60.725C647.572 57.0983 650.235 54.3217 653.692 52.395C657.149 50.4117 661.172 49.42 665.762 49.42C670.239 49.42 674.149 50.4117 677.492 52.395C680.892 54.3783 683.499 57.24 685.312 60.98C687.125 64.6633 688.032 69.0267 688.032 74.07V76.62H656.072C656.185 80.1333 657.12 82.7967 658.877 84.61C660.634 86.4233 663.042 87.33 666.102 87.33C670.522 87.33 673.355 85.4883 674.602 81.805L687.437 82.57C686.19 87.1033 683.64 90.645 679.787 93.195C675.99 95.745 671.344 97.02 665.847 97.02ZM675.027 68.8C674.857 65.57 673.95 63.105 672.307 61.405C670.664 59.705 668.482 58.855 665.762 58.855C663.099 58.855 660.889 59.7333 659.132 61.49C657.432 63.2467 656.412 65.6833 656.072 68.8H675.027Z" fill="black"/>
<path d="M35.9766 8.16844C35.9766 5.1949 39.5929 3.72949 41.6629 5.86424L91.4845 57.245C92.7405 58.5403 93.4429 60.2736 93.4429 62.0778V123.689C93.4429 126.662 89.8265 128.128 87.7566 125.993L37.9349 74.612C36.6789 73.3167 35.9766 71.5834 35.9766 69.7792V8.16844Z" fill="#C2C2C2"/>
<path d="M0 8.16844C0 5.1949 3.61632 3.72949 5.6863 5.86424L55.508 57.245C56.7639 58.5403 57.4663 60.2736 57.4663 62.0778V123.689C57.4663 126.662 53.85 128.128 51.78 125.993L1.95832 74.612C0.702372 73.3167 0 71.5834 0 69.7792V8.16844Z" fill="black"/>
</svg>
