<svg width="379" height="62" viewBox="0 0 379 62" fill="none" xmlns="http://www.w3.org/2000/svg">
<path d="M57.4034 49V12.6364H79.2074V16.5426H61.8068V28.8295H77.5739V32.7358H61.8068V49H57.4034ZM86.1809 49V21.7273H90.3713V49H86.1809ZM88.3116 17.1818C87.4949 17.1818 86.7905 16.9036 86.1987 16.3473C85.6187 15.791 85.3287 15.1222 85.3287 14.3409C85.3287 13.5597 85.6187 12.8909 86.1987 12.3345C86.7905 11.7782 87.4949 11.5 88.3116 11.5C89.1284 11.5 89.8268 11.7782 90.4068 12.3345C90.9986 12.8909 91.2946 13.5597 91.2946 14.3409C91.2946 15.1222 90.9986 15.791 90.4068 16.3473C89.8268 16.9036 89.1284 17.1818 88.3116 17.1818ZM102.237 32.5938V49H98.0462V21.7273H102.094V25.9886H102.45C103.089 24.6037 104.059 23.491 105.362 22.6506C106.664 21.7983 108.344 21.3722 110.404 21.3722C112.251 21.3722 113.866 21.7509 115.251 22.5085C116.636 23.2543 117.714 24.3906 118.483 25.9176C119.252 27.4328 119.637 29.3504 119.637 31.6705V49H115.447V31.9545C115.447 29.812 114.89 28.143 113.778 26.9474C112.665 25.7401 111.138 25.1364 109.197 25.1364C107.859 25.1364 106.664 25.4264 105.61 26.0064C104.568 26.5864 103.746 27.4328 103.142 28.5455C102.538 29.6581 102.237 31.0076 102.237 32.5938ZM138.729 49.5682C136.101 49.5682 133.834 48.9882 131.928 47.8281C130.035 46.6562 128.573 45.0227 127.543 42.9276C126.525 40.8205 126.016 38.3703 126.016 35.5767C126.016 32.7831 126.525 30.321 127.543 28.1903C128.573 26.0478 130.005 24.3788 131.84 23.1832C133.686 21.9759 135.841 21.3722 138.303 21.3722C139.723 21.3722 141.126 21.6089 142.511 22.0824C143.896 22.5559 145.156 23.3253 146.293 24.3906C147.429 25.4441 148.335 26.8409 149.009 28.581C149.684 30.321 150.021 32.4635 150.021 35.0085V36.7841H128.999V33.1619H145.76C145.76 31.6231 145.452 30.25 144.837 29.0426C144.233 27.8352 143.369 26.8823 142.244 26.1839C141.132 25.4856 139.818 25.1364 138.303 25.1364C136.634 25.1364 135.19 25.5507 133.97 26.3793C132.763 27.196 131.834 28.2614 131.183 29.5753C130.532 30.8892 130.206 32.2978 130.206 33.8011V36.2159C130.206 38.2756 130.561 40.0215 131.271 41.4538C131.994 42.8743 132.994 43.9574 134.272 44.7031C135.551 45.437 137.036 45.804 138.729 45.804C139.83 45.804 140.824 45.6501 141.712 45.3423C142.611 45.0227 143.387 44.5492 144.038 43.9219C144.689 43.2827 145.192 42.4896 145.547 41.5426L149.595 42.679C149.169 44.0521 148.453 45.2595 147.447 46.3011C146.441 47.331 145.198 48.1359 143.718 48.7159C142.239 49.2841 140.575 49.5682 138.729 49.5682ZM175.43 12.6364V49H171.026V12.6364H175.43ZM187.881 32.5938V49H183.691V21.7273H187.739V25.9886H188.094C188.733 24.6037 189.704 23.491 191.006 22.6506C192.308 21.7983 193.989 21.3722 196.049 21.3722C197.895 21.3722 199.511 21.7509 200.896 22.5085C202.281 23.2543 203.358 24.3906 204.127 25.9176C204.897 27.4328 205.282 29.3504 205.282 31.6705V49H201.091V31.9545C201.091 29.812 200.535 28.143 199.422 26.9474C198.31 25.7401 196.783 25.1364 194.841 25.1364C193.504 25.1364 192.308 25.4264 191.255 26.0064C190.213 26.5864 189.39 27.4328 188.787 28.5455C188.183 29.6581 187.881 31.0076 187.881 32.5938ZM224.8 21.7273V25.2784H210.666V21.7273H224.8ZM214.785 15.1932H218.976V41.1875C218.976 42.3712 219.147 43.259 219.491 43.8509C219.846 44.4309 220.296 44.8215 220.84 45.0227C221.396 45.2121 221.982 45.3068 222.598 45.3068C223.059 45.3068 223.438 45.2831 223.734 45.2358C224.03 45.1766 224.267 45.1293 224.444 45.0938L225.297 48.858C225.013 48.9645 224.616 49.071 224.107 49.1776C223.598 49.2959 222.953 49.3551 222.172 49.3551C220.988 49.3551 219.828 49.1006 218.692 48.5916C217.567 48.0826 216.632 47.3073 215.886 46.2656C215.152 45.224 214.785 43.91 214.785 42.3239V15.1932ZM242.244 49.5682C239.617 49.5682 237.35 48.9882 235.444 47.8281C233.55 46.6562 232.088 45.0227 231.058 42.9276C230.04 40.8205 229.531 38.3703 229.531 35.5767C229.531 32.7831 230.04 30.321 231.058 28.1903C232.088 26.0478 233.521 24.3788 235.355 23.1832C237.202 21.9759 239.356 21.3722 241.818 21.3722C243.239 21.3722 244.642 21.6089 246.026 22.0824C247.411 22.5559 248.672 23.3253 249.808 24.3906C250.945 25.4441 251.85 26.8409 252.525 28.581C253.2 30.321 253.537 32.4635 253.537 35.0085V36.7841H232.514V33.1619H249.276C249.276 31.6231 248.968 30.25 248.352 29.0426C247.749 27.8352 246.885 26.8823 245.76 26.1839C244.647 25.4856 243.334 25.1364 241.818 25.1364C240.149 25.1364 238.705 25.5507 237.486 26.3793C236.279 27.196 235.349 28.2614 234.698 29.5753C234.047 30.8892 233.722 32.2978 233.722 33.8011V36.2159C233.722 38.2756 234.077 40.0215 234.787 41.4538C235.509 42.8743 236.509 43.9574 237.788 44.7031C239.066 45.437 240.552 45.804 242.244 45.804C243.345 45.804 244.34 45.6501 245.227 45.3423C246.127 45.0227 246.902 44.5492 247.553 43.9219C248.204 43.2827 248.708 42.4896 249.063 41.5426L253.111 42.679C252.685 44.0521 251.969 45.2595 250.963 46.3011C249.956 47.331 248.713 48.1359 247.234 48.7159C245.754 49.2841 244.091 49.5682 242.244 49.5682ZM259.911 49V21.7273H263.96V25.8466H264.244C264.741 24.4972 265.641 23.4022 266.943 22.5618C268.245 21.7214 269.713 21.3011 271.346 21.3011C271.654 21.3011 272.039 21.3071 272.5 21.3189C272.962 21.3307 273.311 21.3485 273.548 21.3722V25.6335C273.406 25.598 273.08 25.5447 272.571 25.4737C272.074 25.3909 271.547 25.3494 270.991 25.3494C269.665 25.3494 268.481 25.6276 267.44 26.1839C266.41 26.7285 265.593 27.486 264.99 28.4567C264.398 29.4155 264.102 30.5104 264.102 31.7415V49H259.911ZM292.369 21.7273V25.2784H277.667V21.7273H292.369ZM282.07 49V17.9631C282.07 16.4006 282.437 15.0985 283.171 14.0568C283.905 13.0151 284.858 12.2339 286.03 11.7131C287.202 11.1922 288.439 10.9318 289.741 10.9318C290.771 10.9318 291.611 11.0147 292.262 11.1804C292.913 11.3461 293.399 11.5 293.718 11.642L292.511 15.2642C292.298 15.1932 292.002 15.1044 291.623 14.9979C291.256 14.8913 290.771 14.8381 290.167 14.8381C288.782 14.8381 287.782 15.1873 287.166 15.8857C286.563 16.584 286.261 17.608 286.261 18.9574V49H282.07ZM305.486 49.6392C303.758 49.6392 302.189 49.3137 300.781 48.6626C299.372 47.9998 298.253 47.0469 297.425 45.804C296.596 44.5492 296.182 43.0341 296.182 41.2585C296.182 39.696 296.49 38.4295 297.105 37.4588C297.721 36.4763 298.543 35.7069 299.573 35.1506C300.603 34.5942 301.739 34.1799 302.982 33.9077C304.237 33.6236 305.498 33.3987 306.764 33.233C308.421 33.0199 309.765 32.8601 310.795 32.7536C311.836 32.6352 312.594 32.4399 313.067 32.1676C313.553 31.8954 313.795 31.4219 313.795 30.7472V30.6051C313.795 28.8532 313.316 27.492 312.357 26.5213C311.41 25.5507 309.972 25.0653 308.043 25.0653C306.042 25.0653 304.474 25.5033 303.337 26.3793C302.201 27.2552 301.402 28.1903 300.94 29.1847L296.963 27.7642C297.673 26.107 298.62 24.8168 299.804 23.8935C301 22.9583 302.302 22.3073 303.71 21.9403C305.131 21.5616 306.527 21.3722 307.901 21.3722C308.777 21.3722 309.783 21.4787 310.919 21.6918C312.067 21.893 313.174 22.3132 314.239 22.9524C315.317 23.5916 316.21 24.5563 316.92 25.8466C317.631 27.1368 317.986 28.8651 317.986 31.0312V49H313.795V45.3068H313.582C313.298 45.8987 312.825 46.532 312.162 47.2067C311.499 47.8814 310.617 48.4555 309.516 48.929C308.415 49.4025 307.072 49.6392 305.486 49.6392ZM306.125 45.875C307.782 45.875 309.179 45.5495 310.315 44.8984C311.464 44.2474 312.328 43.407 312.908 42.3771C313.5 41.3473 313.795 40.2642 313.795 39.1278V35.2926C313.618 35.5057 313.227 35.701 312.624 35.8786C312.032 36.0443 311.345 36.1922 310.564 36.3224C309.795 36.4408 309.043 36.5473 308.309 36.642C307.587 36.7249 307.001 36.7959 306.551 36.8551C305.462 36.9972 304.444 37.228 303.497 37.5476C302.562 37.8554 301.804 38.3229 301.224 38.9503C300.656 39.5658 300.372 40.4062 300.372 41.4716C300.372 42.9276 300.911 44.0284 301.988 44.7741C303.077 45.508 304.456 45.875 306.125 45.875ZM336.714 49.5682C334.157 49.5682 331.955 48.9645 330.108 47.7571C328.262 46.5497 326.841 44.8866 325.847 42.7678C324.853 40.6489 324.356 38.2282 324.356 35.5057C324.356 32.7358 324.865 30.2914 325.883 28.1726C326.912 26.0419 328.345 24.3788 330.18 23.1832C332.026 21.9759 334.18 21.3722 336.643 21.3722C338.56 21.3722 340.288 21.7273 341.827 22.4375C343.366 23.1477 344.627 24.142 345.609 25.4205C346.592 26.6989 347.201 28.1903 347.438 29.8949H343.248C342.928 28.652 342.218 27.5511 341.117 26.5923C340.028 25.6217 338.56 25.1364 336.714 25.1364C335.08 25.1364 333.648 25.5625 332.417 26.4148C331.198 27.2552 330.245 28.4448 329.558 29.9837C328.883 31.5107 328.546 33.304 328.546 35.3636C328.546 37.4706 328.877 39.3054 329.54 40.8679C330.215 42.4304 331.162 43.6437 332.381 44.5078C333.612 45.3719 335.056 45.804 336.714 45.804C337.803 45.804 338.791 45.6146 339.679 45.2358C340.567 44.857 341.318 44.3125 341.934 43.6023C342.549 42.892 342.987 42.0398 343.248 41.0455H347.438C347.201 42.6553 346.615 44.1054 345.68 45.3956C344.757 46.674 343.532 47.692 342.005 48.4496C340.49 49.1953 338.726 49.5682 336.714 49.5682ZM364.998 49.5682C362.371 49.5682 360.104 48.9882 358.198 47.8281C356.304 46.6562 354.842 45.0227 353.812 42.9276C352.794 40.8205 352.285 38.3703 352.285 35.5767C352.285 32.7831 352.794 30.321 353.812 28.1903C354.842 26.0478 356.274 24.3788 358.109 23.1832C359.956 21.9759 362.11 21.3722 364.572 21.3722C365.993 21.3722 367.395 21.6089 368.78 22.0824C370.165 22.5559 371.426 23.3253 372.562 24.3906C373.699 25.4441 374.604 26.8409 375.279 28.581C375.954 30.321 376.291 32.4635 376.291 35.0085V36.7841H355.268V33.1619H372.03C372.03 31.6231 371.722 30.25 371.106 29.0426C370.503 27.8352 369.639 26.8823 368.514 26.1839C367.401 25.4856 366.087 25.1364 364.572 25.1364C362.903 25.1364 361.459 25.5507 360.24 26.3793C359.032 27.196 358.103 28.2614 357.452 29.5753C356.801 30.8892 356.476 32.2978 356.476 33.8011V36.2159C356.476 38.2756 356.831 40.0215 357.541 41.4538C358.263 42.8743 359.263 43.9574 360.542 44.7031C361.82 45.437 363.306 45.804 364.998 45.804C366.099 45.804 367.094 45.6501 367.981 45.3423C368.881 45.0227 369.656 44.5492 370.307 43.9219C370.958 43.2827 371.461 42.4896 371.817 41.5426L375.865 42.679C375.439 44.0521 374.723 45.2595 373.716 46.3011C372.71 47.331 371.467 48.1359 369.988 48.7159C368.508 49.2841 366.845 49.5682 364.998 49.5682Z" fill="white"/>
<path d="M16.7188 8.16746C16.7188 5.19405 20.3348 3.72858 22.4049 5.86307L41.479 25.5308C42.7352 26.8261 43.4377 28.5596 43.4377 30.364V53.1293C43.4377 56.1027 39.8217 57.5682 37.7516 55.4337L18.6775 35.7659C17.4213 34.4706 16.7188 32.7371 16.7188 30.9327V8.16746Z" fill="#4B4B4B"/>
<path d="M0 8.16746C0 5.19405 3.61605 3.72858 5.68611 5.86307L24.7602 25.5308C26.0164 26.8261 26.719 28.5596 26.719 30.364V53.1293C26.719 56.1027 23.1029 57.5682 21.0329 55.4337L1.95873 35.7659C0.702531 34.4706 0 32.7371 0 30.9327V8.16746Z" fill="white"/>
</svg>
