<svg width="0" height="68" viewBox="0 0 270 68" fill="none" xmlns="http://www.w3.org/2000/svg">
<path d="M64.73 13.95H79.305C83.7417 13.95 87.2067 15.0317 89.7 17.195C92.23 19.3217 93.495 22.2917 93.495 26.105C93.495 29.9183 92.23 32.925 89.7 35.125C87.2067 37.2883 83.7417 38.37 79.305 38.37H70.67V53H64.73V13.95ZM79.14 32.98C81.8167 32.98 83.8517 32.4117 85.245 31.275C86.6383 30.1017 87.335 28.3783 87.335 26.105C87.335 23.8683 86.6383 22.2 85.245 21.1C83.8883 19.9633 81.8533 19.395 79.14 19.395H70.67V32.98H79.14ZM107.396 53.66C104.316 53.66 101.877 52.9633 100.081 51.57C98.2842 50.14 97.3858 48.1783 97.3858 45.685C97.3858 43.1917 98.1375 41.23 99.6408 39.8C101.144 38.37 103.509 37.3433 106.736 36.72L116.801 34.795C116.801 30.285 114.711 28.03 110.531 28.03C106.901 28.03 104.701 29.6617 103.931 32.925L97.8808 32.54C98.4308 29.6067 99.8058 27.2967 102.006 25.61C104.242 23.9233 107.084 23.08 110.531 23.08C114.454 23.08 117.442 24.1433 119.496 26.27C121.586 28.36 122.631 31.3117 122.631 35.125V46.51C122.631 47.2067 122.759 47.7017 123.016 47.995C123.272 48.2517 123.676 48.38 124.226 48.38H125.271V53C124.904 53.11 124.189 53.165 123.126 53.165C121.402 53.165 120.064 52.7983 119.111 52.065C118.157 51.3317 117.552 50.14 117.296 48.49C116.562 50.03 115.297 51.2767 113.501 52.23C111.704 53.1833 109.669 53.66 107.396 53.66ZM108.386 49.04C110.952 49.04 112.987 48.3067 114.491 46.84C116.031 45.3733 116.801 43.4483 116.801 41.065V39.195L108.276 40.845C106.552 41.175 105.306 41.6883 104.536 42.385C103.802 43.0817 103.436 43.9983 103.436 45.135C103.436 46.3817 103.857 47.3533 104.701 48.05C105.581 48.71 106.809 49.04 108.386 49.04ZM130.995 23.74H136.33L136.495 28.8C137.228 26.8933 138.365 25.4633 139.905 24.51C141.482 23.5567 143.297 23.08 145.35 23.08C148.54 23.08 150.978 24.1067 152.665 26.16C154.388 28.2133 155.25 30.89 155.25 34.19V53H149.42V35.95C149.42 33.31 148.962 31.33 148.045 30.01C147.165 28.6533 145.735 27.975 143.755 27.975C141.665 27.975 139.978 28.6717 138.695 30.065C137.448 31.4583 136.825 33.42 136.825 35.95V53H130.995V23.74ZM174.893 53.66C172.107 53.66 169.668 53.0367 167.578 51.79C165.488 50.5067 163.875 48.71 162.738 46.4C161.602 44.09 161.033 41.4133 161.033 38.37C161.033 35.3267 161.583 32.65 162.683 30.34C163.82 28.03 165.415 26.2517 167.468 25.005C169.558 23.7217 171.978 23.08 174.728 23.08C177.405 23.08 179.752 23.7033 181.768 24.95C183.785 26.16 185.343 27.9383 186.443 30.285C187.58 32.595 188.148 35.3633 188.148 38.59V40.075H167.138C167.285 42.8983 168.037 45.0433 169.393 46.51C170.75 47.94 172.602 48.655 174.948 48.655C176.635 48.655 178.047 48.27 179.183 47.5C180.357 46.6933 181.182 45.5933 181.658 44.2L187.708 44.585C186.938 47.335 185.398 49.535 183.088 51.185C180.815 52.835 178.083 53.66 174.893 53.66ZM181.933 35.675C181.787 33.145 181.072 31.2383 179.788 29.955C178.505 28.6717 176.818 28.03 174.728 28.03C172.638 28.03 170.933 28.69 169.613 30.01C168.293 31.33 167.468 33.2183 167.138 35.675H181.933ZM200.863 53C198.846 53 197.269 52.4867 196.133 51.46C194.996 50.4333 194.428 48.875 194.428 46.785L194.483 13.95H200.313V46.235C200.313 47.555 200.973 48.215 202.293 48.215H204.658V53H200.863ZM216.761 53C214.745 53 213.168 52.4867 212.031 51.46C210.895 50.4333 210.326 48.875 210.326 46.785L210.381 13.95H216.211V46.235C216.211 47.555 216.871 48.215 218.191 48.215H220.556V53H216.761ZM226.762 23.74H232.592V53H226.762V23.74ZM226.652 13.675H232.757V19.505H226.652V13.675ZM252.99 53.66C250.204 53.66 247.765 53.0367 245.675 51.79C243.585 50.5433 241.954 48.765 240.78 46.455C239.644 44.145 239.075 41.45 239.075 38.37C239.075 35.29 239.644 32.595 240.78 30.285C241.954 27.975 243.585 26.1967 245.675 24.95C247.765 23.7033 250.204 23.08 252.99 23.08C255.74 23.08 258.16 23.7217 260.25 25.005C262.377 26.2517 264.009 28.03 265.145 30.34C266.282 32.6133 266.85 35.29 266.85 38.37C266.85 41.45 266.282 44.145 265.145 46.455C264.009 48.7283 262.377 50.5067 260.25 51.79C258.16 53.0367 255.74 53.66 252.99 53.66ZM252.99 48.6C255.447 48.6 257.354 47.7017 258.71 45.905C260.104 44.1083 260.8 41.5967 260.8 38.37C260.8 35.1433 260.104 32.6317 258.71 30.835C257.354 29.0383 255.447 28.14 252.99 28.14C250.534 28.14 248.609 29.0383 247.215 30.835C245.822 32.6317 245.125 35.1433 245.125 38.37C245.125 41.5967 245.822 44.1083 247.215 45.905C248.609 47.7017 250.534 48.6 252.99 48.6Z" fill="white"/>
<path d="M5.68835 30.5578H14.3841C17.9822 30.7625 21.4051 32.18 24.0942 34.5797L24.4203 34.9421C26.8325 37.6232 28.2519 41.0506 28.4419 44.6522V53.3115C28.4419 54.8201 29.0413 56.2671 30.108 57.3338C31.1748 58.4005 32.6218 59 34.1305 59H44.3116C45.8202 59 47.2671 58.4005 48.3339 57.3338C49.4007 56.2671 50 54.8201 50 53.3115V43.1304C50 41.6218 49.4007 40.1749 48.3339 39.1082C47.2671 38.0414 45.8202 37.4421 44.3116 37.4421H35.6522C32.0506 37.2519 28.6232 35.8323 25.9419 33.4202L25.5797 33.0941C23.1751 30.4083 21.7568 26.9837 21.5579 23.384V14.6884C21.5579 13.1798 20.9587 11.7329 19.892 10.6661C18.825 9.59936 17.3782 9 15.8695 9H5.68835C4.17966 9 2.73288 9.59936 1.6661 10.6661C0.599332 11.7329 0 13.1798 0 14.6884V24.8697C0 26.3782 0.599332 27.825 1.6661 28.8918C2.73288 29.9585 4.17966 30.5578 5.68835 30.5578Z" fill="white"/>
<path d="M43.4272 9H33.5248C30.4693 9 27.9922 11.4766 27.9922 14.5324V24.4348C27.9922 27.4904 30.4693 29.9676 33.5248 29.9676H43.4272C46.4829 29.9676 48.9599 27.4904 48.9599 24.4348V14.5324C48.9599 11.4766 46.4829 9 43.4272 9Z" fill="white"/>
<path d="M15.435 37.5625H5.53259C2.4771 37.5625 0 40.0391 0 43.0949V52.9973C0 56.0529 2.4771 58.5301 5.53259 58.5301H15.435C18.4907 58.5301 20.9677 56.0529 20.9677 52.9973V43.0949C20.9677 40.0391 18.4907 37.5625 15.435 37.5625Z" fill="white"/>
</svg>
