<svg width="396" height="70" viewBox="0 0 396 70" fill="none" xmlns="http://www.w3.org/2000/svg">
<path opacity="0.95" d="M31.6712 39.1619C30.7456 39.6984 30.1758 40.6874 30.1758 41.7573V64.5021C30.1758 66.8149 32.6823 68.2578 34.6823 67.0964L54.2641 55.7255C55.1886 55.1887 55.7576 54.2003 55.7576 53.1312V30.4059C55.7576 28.0942 53.253 26.6511 51.253 27.8105L31.6712 39.1619Z" fill="white"/>
<path opacity="0.95" d="M26.0158 36.0118C26.9388 36.553 28.0801 36.5617 29.0112 36.0347L48.8048 24.8302C50.8175 23.6909 50.8385 20.7988 48.8426 19.6305L29.3008 8.19091C28.3781 7.65079 27.2377 7.64252 26.3073 8.16918L6.53069 19.364C4.51891 20.5028 4.49685 23.3933 6.49102 24.5626L26.0158 36.0118Z" fill="white"/>
<path d="M24.5747 39.1619C25.5003 39.6984 26.0701 40.6874 26.0701 41.7573V64.5021C26.0701 66.8149 23.5636 68.2578 21.5636 67.0964L1.9818 55.7255C1.05725 55.1887 0.488281 54.2003 0.488281 53.1312V30.4059C0.488281 28.0942 2.99284 26.6511 4.99283 27.8105L24.5747 39.1619Z" fill="white"/>
<path d="M66.7928 22.0197H73.0028L78.8528 45.8697L84.7028 22.0197H90.1478L96.0878 45.8697L101.893 22.0197H108.058L99.5528 53.9697H93.0278L87.4478 32.0997L81.8678 53.9697H75.3878L66.7928 22.0197ZM120.043 54.5097C117.673 54.5097 115.588 53.9997 113.788 52.9797C112.018 51.9297 110.638 50.4597 109.648 48.5697C108.688 46.6797 108.208 44.4747 108.208 41.9547C108.208 39.4347 108.688 37.2297 109.648 35.3397C110.638 33.4497 112.018 31.9947 113.788 30.9747C115.588 29.9247 117.673 29.3997 120.043 29.3997C122.383 29.3997 124.438 29.9247 126.208 30.9747C128.008 31.9947 129.388 33.4497 130.348 35.3397C131.338 37.2297 131.833 39.4347 131.833 41.9547C131.833 44.4747 131.338 46.6797 130.348 48.5697C129.388 50.4597 128.008 51.9297 126.208 52.9797C124.438 53.9997 122.383 54.5097 120.043 54.5097ZM120.043 49.8297C121.903 49.8297 123.343 49.1397 124.363 47.7597C125.383 46.3797 125.893 44.4447 125.893 41.9547C125.893 39.4647 125.368 37.5297 124.318 36.1497C123.298 34.7697 121.873 34.0797 120.043 34.0797C118.183 34.0797 116.743 34.7697 115.723 36.1497C114.703 37.5297 114.193 39.4647 114.193 41.9547C114.193 44.4447 114.703 46.3797 115.723 47.7597C116.743 49.1397 118.183 49.8297 120.043 49.8297ZM136.496 29.9397H141.896L142.031 34.5747C142.511 32.9847 143.216 31.8147 144.146 31.0647C145.106 30.3147 146.321 29.9397 147.791 29.9397H149.996V34.8897H147.746C145.886 34.8897 144.506 35.3097 143.606 36.1497C142.706 36.9597 142.256 38.2797 142.256 40.1097V53.9697H136.496V29.9397ZM162.188 54.5097C160.148 54.5097 158.378 53.9997 156.878 52.9797C155.378 51.9597 154.223 50.5047 153.413 48.6147C152.603 46.7247 152.198 44.5047 152.198 41.9547C152.198 39.4047 152.603 37.1847 153.413 35.2947C154.253 33.4047 155.423 31.9497 156.923 30.9297C158.423 29.9097 160.178 29.3997 162.188 29.3997C163.838 29.3997 165.293 29.7597 166.553 30.4797C167.843 31.1697 168.818 32.1297 169.478 33.3597V22.0197H175.238V53.9697H169.793L169.658 50.4147C168.968 51.7047 167.963 52.7097 166.643 53.4297C165.323 54.1497 163.838 54.5097 162.188 54.5097ZM163.898 49.8297C165.668 49.8297 167.033 49.1547 167.993 47.8047C168.983 46.4247 169.478 44.4747 169.478 41.9547C169.478 39.4047 168.998 37.4547 168.038 36.1047C167.078 34.7547 165.698 34.0797 163.898 34.0797C162.128 34.0797 160.733 34.7847 159.713 36.1947C158.693 37.6047 158.183 39.5247 158.183 41.9547C158.183 44.3547 158.693 46.2747 159.713 47.7147C160.763 49.1247 162.158 49.8297 163.898 49.8297ZM192.624 22.0197H198.474V53.9697H192.624V22.0197ZM204.655 29.9397H209.875L210.01 34.0797C210.61 32.4897 211.54 31.3197 212.8 30.5697C214.06 29.7897 215.53 29.3997 217.21 29.3997C219.82 29.3997 221.83 30.2397 223.24 31.9197C224.68 33.5697 225.4 35.7747 225.4 38.5347V53.9697H219.64V40.3797C219.64 38.2797 219.31 36.7047 218.65 35.6547C218.02 34.6047 216.955 34.0797 215.455 34.0797C213.895 34.0797 212.665 34.6347 211.765 35.7447C210.865 36.8247 210.415 38.3697 210.415 40.3797V53.9697H204.655V29.9397ZM228.642 29.9397H234.717L240.837 48.1647L246.912 29.9397H253.032L244.212 53.9697H237.417L228.642 29.9397ZM266.38 54.5097C264.01 54.5097 261.925 53.9997 260.125 52.9797C258.355 51.9297 256.99 50.4597 256.03 48.5697C255.07 46.6797 254.59 44.4747 254.59 41.9547C254.59 39.4647 255.07 37.2747 256.03 35.3847C256.99 33.4647 258.34 31.9947 260.08 30.9747C261.85 29.9247 263.905 29.3997 266.245 29.3997C268.525 29.3997 270.52 29.9097 272.23 30.9297C273.97 31.9497 275.305 33.4347 276.235 35.3847C277.195 37.3047 277.675 39.5997 277.675 42.2697V43.5747H260.575C260.695 45.6447 261.265 47.2197 262.285 48.2997C263.305 49.3797 264.685 49.9197 266.425 49.9197C267.685 49.9197 268.75 49.6347 269.62 49.0647C270.49 48.4647 271.09 47.6397 271.42 46.5897L277.315 46.9497C276.655 49.2897 275.35 51.1347 273.4 52.4847C271.48 53.8347 269.14 54.5097 266.38 54.5097ZM271.69 39.7047C271.57 37.7847 271.03 36.3447 270.07 35.3847C269.11 34.4247 267.835 33.9447 266.245 33.9447C264.685 33.9447 263.395 34.4397 262.375 35.4297C261.385 36.4197 260.785 37.8447 260.575 39.7047H271.69ZM282.306 29.9397H287.526L287.661 34.0797C288.261 32.4897 289.191 31.3197 290.451 30.5697C291.711 29.7897 293.181 29.3997 294.861 29.3997C297.471 29.3997 299.481 30.2397 300.891 31.9197C302.331 33.5697 303.051 35.7747 303.051 38.5347V53.9697H297.291V40.3797C297.291 38.2797 296.961 36.7047 296.301 35.6547C295.671 34.6047 294.606 34.0797 293.106 34.0797C291.546 34.0797 290.316 34.6347 289.416 35.7447C288.516 36.8247 288.066 38.3697 288.066 40.3797V53.9697H282.306V29.9397ZM317.6 53.9697C315.2 53.9697 313.43 53.4147 312.29 52.3047C311.18 51.1947 310.625 49.4547 310.625 47.0847V34.3947H306.845V29.9397H310.625V24.3147H316.385V29.9397H322.73V34.3947H316.385V46.5447C316.385 47.6547 316.61 48.4347 317.06 48.8847C317.54 49.3047 318.305 49.5147 319.355 49.5147H322.73V53.9697H317.6ZM337.265 54.5097C334.895 54.5097 332.81 53.9997 331.01 52.9797C329.24 51.9297 327.86 50.4597 326.87 48.5697C325.91 46.6797 325.43 44.4747 325.43 41.9547C325.43 39.4347 325.91 37.2297 326.87 35.3397C327.86 33.4497 329.24 31.9947 331.01 30.9747C332.81 29.9247 334.895 29.3997 337.265 29.3997C339.605 29.3997 341.66 29.9247 343.43 30.9747C345.23 31.9947 346.61 33.4497 347.57 35.3397C348.56 37.2297 349.055 39.4347 349.055 41.9547C349.055 44.4747 348.56 46.6797 347.57 48.5697C346.61 50.4597 345.23 51.9297 343.43 52.9797C341.66 53.9997 339.605 54.5097 337.265 54.5097ZM337.265 49.8297C339.125 49.8297 340.565 49.1397 341.585 47.7597C342.605 46.3797 343.115 44.4447 343.115 41.9547C343.115 39.4647 342.59 37.5297 341.54 36.1497C340.52 34.7697 339.095 34.0797 337.265 34.0797C335.405 34.0797 333.965 34.7697 332.945 36.1497C331.925 37.5297 331.415 39.4647 331.415 41.9547C331.415 44.4447 331.925 46.3797 332.945 47.7597C333.965 49.1397 335.405 49.8297 337.265 49.8297ZM353.717 29.9397H359.117L359.252 34.5747C359.732 32.9847 360.437 31.8147 361.367 31.0647C362.327 30.3147 363.542 29.9397 365.012 29.9397H367.217V34.8897H364.967C363.107 34.8897 361.727 35.3097 360.827 36.1497C359.927 36.9597 359.477 38.2797 359.477 40.1097V53.9697H353.717V29.9397ZM373.972 56.2647H377.032C377.812 56.2647 378.382 56.1447 378.742 55.9047C379.132 55.6647 379.447 55.2597 379.687 54.6897L380.317 53.0247H378.652L370.102 29.9397H376.042L382.117 47.6247L387.832 29.9397H393.817L384.412 56.4897C383.902 57.9897 383.152 59.0697 382.162 59.7297C381.172 60.3897 379.807 60.7197 378.067 60.7197H373.972V56.2647Z" fill="white"/>
</svg>
