<svg width="345" height="50" viewBox="0 0 345 50" fill="none" xmlns="http://www.w3.org/2000/svg">
<path d="M18.9174 25.3229C29.3652 25.3229 37.8349 20.4831 37.8349 14.5129C37.8349 8.54273 29.3652 3.70294 18.9174 3.70294C8.46962 3.70294 0 8.54273 0 14.5129C0 20.4831 8.46962 25.3229 18.9174 25.3229Z" fill="white"/>
<path d="M34.3053 25.6763C30.1651 28.0422 24.7161 29.3766 18.9174 29.3766C13.1188 29.3766 7.66975 28.0422 3.52957 25.6763C2.27669 24.9604 1.06911 24.0996 0 23.1007V25.3229C0 31.293 8.46962 36.1328 18.9174 36.1328C29.3652 36.1328 37.8349 31.293 37.8349 25.3229V23.1007C36.7658 24.0996 35.5582 24.9604 34.3053 25.6763Z" fill="white"/>
<path d="M0 33.9107V36.1328C0 42.103 8.46962 46.9428 18.9174 46.9428C29.3652 46.9428 37.8349 42.103 37.8349 36.1328V33.9107C36.7658 34.9096 35.5582 35.7704 34.3053 36.4863C30.1651 38.8521 24.7161 40.1866 18.9174 40.1866C13.1188 40.1866 7.66975 38.8521 3.52957 36.4863C2.27669 35.7704 1.06911 34.9096 0 33.9107Z" fill="white"/>
<path d="M47.92 10.6H53.44L58.64 31.8L63.84 10.6H68.68L73.96 31.8L79.12 10.6H84.6L77.04 39H71.24L66.28 19.56L61.32 39H55.56L47.92 10.6ZM95.2538 39.48C93.1471 39.48 91.2938 39.0267 89.6938 38.12C88.1204 37.1867 86.8938 35.88 86.0138 34.2C85.1604 32.52 84.7338 30.56 84.7338 28.32C84.7338 26.08 85.1604 24.12 86.0138 22.44C86.8938 20.76 88.1204 19.4667 89.6938 18.56C91.2938 17.6267 93.1471 17.16 95.2538 17.16C97.3338 17.16 99.1604 17.6267 100.734 18.56C102.334 19.4667 103.56 20.76 104.414 22.44C105.294 24.12 105.734 26.08 105.734 28.32C105.734 30.56 105.294 32.52 104.414 34.2C103.56 35.88 102.334 37.1867 100.734 38.12C99.1604 39.0267 97.3338 39.48 95.2538 39.48ZM95.2538 35.32C96.9071 35.32 98.1871 34.7067 99.0938 33.48C100 32.2533 100.454 30.5333 100.454 28.32C100.454 26.1067 99.9871 24.3867 99.0538 23.16C98.1471 21.9333 96.8804 21.32 95.2538 21.32C93.6004 21.32 92.3204 21.9333 91.4138 23.16C90.5071 24.3867 90.0538 26.1067 90.0538 28.32C90.0538 30.5333 90.5071 32.2533 91.4138 33.48C92.3204 34.7067 93.6004 35.32 95.2538 35.32ZM109.878 17.64H114.678L114.798 21.76C115.225 20.3467 115.851 19.3067 116.678 18.64C117.531 17.9733 118.611 17.64 119.918 17.64H121.878V22.04H119.878C118.225 22.04 116.998 22.4133 116.198 23.16C115.398 23.88 114.998 25.0533 114.998 26.68V39H109.878V17.64ZM132.715 39.48C130.902 39.48 129.329 39.0267 127.995 38.12C126.662 37.2133 125.635 35.92 124.915 34.24C124.195 32.56 123.835 30.5867 123.835 28.32C123.835 26.0533 124.195 24.08 124.915 22.4C125.662 20.72 126.702 19.4267 128.035 18.52C129.369 17.6133 130.929 17.16 132.715 17.16C134.182 17.16 135.475 17.48 136.595 18.12C137.742 18.7333 138.609 19.5867 139.195 20.68V10.6H144.315V39H139.475L139.355 35.84C138.742 36.9867 137.849 37.88 136.675 38.52C135.502 39.16 134.182 39.48 132.715 39.48ZM134.235 35.32C135.809 35.32 137.022 34.72 137.875 33.52C138.755 32.2933 139.195 30.56 139.195 28.32C139.195 26.0533 138.769 24.32 137.915 23.12C137.062 21.92 135.835 21.32 134.235 21.32C132.662 21.32 131.422 21.9467 130.515 23.2C129.609 24.4533 129.155 26.16 129.155 28.32C129.155 30.4533 129.609 32.16 130.515 33.44C131.449 34.6933 132.689 35.32 134.235 35.32ZM159.77 10.6H164.97V39H159.77V10.6ZM170.464 17.64H175.104L175.224 21.32C175.757 19.9067 176.584 18.8667 177.704 18.2C178.824 17.5067 180.131 17.16 181.624 17.16C183.944 17.16 185.731 17.9067 186.984 19.4C188.264 20.8667 188.904 22.8267 188.904 25.28V39H183.784V26.92C183.784 25.0533 183.491 23.6533 182.904 22.72C182.344 21.7867 181.397 21.32 180.064 21.32C178.677 21.32 177.584 21.8133 176.784 22.8C175.984 23.76 175.584 25.1333 175.584 26.92V39H170.464V17.64ZM191.786 17.64H197.186L202.626 33.84L208.026 17.64H213.466L205.626 39H199.586L191.786 17.64ZM225.331 39.48C223.224 39.48 221.371 39.0267 219.771 38.12C218.198 37.1867 216.984 35.88 216.131 34.2C215.278 32.52 214.851 30.56 214.851 28.32C214.851 26.1067 215.278 24.16 216.131 22.48C216.984 20.7733 218.184 19.4667 219.731 18.56C221.304 17.6267 223.131 17.16 225.211 17.16C227.238 17.16 229.011 17.6133 230.531 18.52C232.078 19.4267 233.264 20.7467 234.091 22.48C234.944 24.1867 235.371 26.2267 235.371 28.6V29.76H220.171C220.278 31.6 220.784 33 221.691 33.96C222.598 34.92 223.824 35.4 225.371 35.4C226.491 35.4 227.438 35.1467 228.211 34.64C228.984 34.1067 229.518 33.3733 229.811 32.44L235.051 32.76C234.464 34.84 233.304 36.48 231.571 37.68C229.864 38.88 227.784 39.48 225.331 39.48ZM230.051 26.32C229.944 24.6133 229.464 23.3333 228.611 22.48C227.758 21.6267 226.624 21.2 225.211 21.2C223.824 21.2 222.678 21.64 221.771 22.52C220.891 23.4 220.358 24.6667 220.171 26.32H230.051ZM239.488 17.64H244.128L244.248 21.32C244.781 19.9067 245.608 18.8667 246.728 18.2C247.848 17.5067 249.154 17.16 250.648 17.16C252.968 17.16 254.754 17.9067 256.008 19.4C257.288 20.8667 257.928 22.8267 257.928 25.28V39H252.808V26.92C252.808 25.0533 252.514 23.6533 251.928 22.72C251.368 21.7867 250.421 21.32 249.088 21.32C247.701 21.32 246.608 21.8133 245.808 22.8C245.008 23.76 244.608 25.1333 244.608 26.92V39H239.488V17.64ZM270.86 39C268.727 39 267.153 38.5067 266.14 37.52C265.153 36.5333 264.66 34.9867 264.66 32.88V21.6H261.3V17.64H264.66V12.64H269.78V17.64H275.42V21.6H269.78V32.4C269.78 33.3867 269.98 34.08 270.38 34.48C270.807 34.8533 271.487 35.04 272.42 35.04H275.42V39H270.86ZM288.34 39.48C286.233 39.48 284.38 39.0267 282.78 38.12C281.206 37.1867 279.98 35.88 279.1 34.2C278.246 32.52 277.82 30.56 277.82 28.32C277.82 26.08 278.246 24.12 279.1 22.44C279.98 20.76 281.206 19.4667 282.78 18.56C284.38 17.6267 286.233 17.16 288.34 17.16C290.42 17.16 292.246 17.6267 293.82 18.56C295.42 19.4667 296.646 20.76 297.5 22.44C298.38 24.12 298.82 26.08 298.82 28.32C298.82 30.56 298.38 32.52 297.5 34.2C296.646 35.88 295.42 37.1867 293.82 38.12C292.246 39.0267 290.42 39.48 288.34 39.48ZM288.34 35.32C289.993 35.32 291.273 34.7067 292.18 33.48C293.086 32.2533 293.54 30.5333 293.54 28.32C293.54 26.1067 293.073 24.3867 292.14 23.16C291.233 21.9333 289.966 21.32 288.34 21.32C286.686 21.32 285.406 21.9333 284.5 23.16C283.593 24.3867 283.14 26.1067 283.14 28.32C283.14 30.5333 283.593 32.2533 284.5 33.48C285.406 34.7067 286.686 35.32 288.34 35.32ZM302.964 17.64H307.764L307.884 21.76C308.311 20.3467 308.937 19.3067 309.764 18.64C310.617 17.9733 311.697 17.64 313.004 17.64H314.964V22.04H312.964C311.311 22.04 310.084 22.4133 309.284 23.16C308.484 23.88 308.084 25.0533 308.084 26.68V39H302.964V17.64ZM320.968 41.04H323.688C324.382 41.04 324.888 40.9333 325.208 40.72C325.555 40.5067 325.835 40.1467 326.048 39.64L326.608 38.16H325.128L317.528 17.64H322.808L328.208 33.36L333.288 17.64H338.608L330.248 41.24C329.795 42.5733 329.128 43.5333 328.248 44.12C327.368 44.7067 326.155 45 324.608 45H320.968V41.04Z" fill="white"/>
</svg>
